<?xml version="1.0" encoding="UTF-8"?>
<svg width="85px" height="100px" viewBox="0 0 85 100" version="1.1" xmlns="http://www.w3.org/2000/svg" xmlns:xlink="http://www.w3.org/1999/xlink">
    <!-- Generator: Sketch 50.2 (55047) - http://www.bohemiancoding.com/sketch -->
    <title>Group</title>
    <desc>Created with Sketch.</desc>
    <defs>
        <polygon id="path-1" points="0 0.84 85 0.84 85 99.9998 0 99.9998"></polygon>
    </defs>
    <g id="Startpage" stroke="none" stroke-width="1" fill="none" fill-rule="evenodd">
        <g id="Group" transform="translate(0.000000, -1.000000)">
            <g id="Group-3" transform="translate(0.000000, 0.160000)">
                <mask id="mask-2" fill="white">
                    <use xlink:href="#path-1"></use>
                </mask>
                <g id="Clip-2"></g>
                <path d="M60,63.3898 C60,66.0598 59.31,68.0998 57.94,69.5308 C56.94,70.5308 55.69,71.1698 54.06,71.4298 C52.79,71.6698 51.47,71.6698 50.2,71.6698 C48.03,71.6298 46.01,71.5998 45.05,72.7008 C44.41,73.3698 44,74.4698 44,75.9698 L44,76.1098 L42.52,76.0398 L41,76.1098 L41,75.9698 C41,74.4698 40.68,73.3698 40.05,72.7008 C39.05,71.5998 37.14,71.6298 35,71.6698 C33.7,71.6698 32.38,71.6698 31.11,71.4298 C29.47,71.1698 28.19,70.2598 27.19,69.2598 C25.72,67.7898 25.01,65.5098 25.08,62.5098 L28.55,62.5098 C28.52,64.5098 28.88,66.0198 29.65,66.8208 C30.12,67.2898 30.79,67.7298 31.69,67.8898 C32.65,68.0598 33.76,68.1298 34.92,68.1298 C37.53,68.0898 40.46,68.0998 42.5,70.2998 C42.53,70.3298 42.57,70.3498 42.57,70.3798 C42.6,70.3498 42.63,70.3598 42.63,70.3208 C44.7,68.1198 47.64,68.1608 50.24,68.1898 C51.41,68.1898 52.51,68.1898 53.48,68.0308 C54.38,67.8598 55.01,67.2898 55.51,66.8208 C56.28,66.0198 56.65,64.5098 56.62,62.5098 L60,62.5098 L60,63.3898 Z M41,66.5098 L44,66.5098 L44,44.5098 L41,44.5098 L41,66.5098 Z M32,42.5098 L54,42.5098 L54,39.5098 L32,39.5098 L32,42.5098 Z M42.58,24.7298 C45.57,24.7298 48,27.0498 48,30.1498 C48,33.2498 45.57,35.5498 42.58,35.5498 C39.59,35.5498 37.16,33.2498 37.16,30.1498 C37.16,27.0498 39.59,24.7298 42.58,24.7298 Z M42.5,0.8398 L0,25.6298 L0,75.2098 L42.5,99.9998 L85,75.2098 L85,25.6298 L42.5,0.8398 Z" id="Fill-1" fill="#FFFFFF" mask="url(#mask-2)"></path>
            </g>
            <path d="M42.5811,33.939 C44.3731,33.939 45.8281,32.421 45.8281,30.312 C45.8281,28.182 44.3731,26.686 42.5811,26.686 C40.7891,26.686 39.3341,28.182 39.3341,30.312 C39.3341,32.421 40.7891,33.939 42.5811,33.939" id="Fill-4" fill="#FFFFFF"></path>
        </g>
    </g>
</svg>