<svg id="link" data-name="link" xmlns="http://www.w3.org/2000/svg" viewBox="0 0 20 20" width="25" height="25" fill="none">
<path d="M13.1,3.4C13,3.6,13,3.7,13,3.9c-0.1,0.5-0.4,1-0.7,1.3c-1,1-1.9,2-2.9,3c-1.1,1.1-3,1.1-4.2,0
		C4.8,7.8,4.7,7.3,5.1,6.9c0.3-0.4,0.9-0.4,1.3,0c0.5,0.4,1.1,0.5,1.6,0.2C8,7,8.1,7,8.2,6.9C9.1,6,10,5,10.9,4.1
		c0.7-0.7,0.4-2-0.6-2.2c-0.5-0.1-0.9,0-1.3,0.4c-0.5,0.5-1,1-1.5,1.6C7.4,3.9,7.3,3.9,7.1,3.9C6.7,3.7,6.3,3.6,5.8,3.6
		c-0.1,0-0.2,0-0.3-0.1c-0.1-0.1,0-0.2,0.1-0.3C6.3,2.5,7.1,1.7,7.8,1c0.5-0.5,1.2-0.9,1.9-1c0,0,0,0,0.1,0c0.2,0,0.4,0,0.5,0
		c0,0,0.1,0,0.1,0c1.3,0.2,2.1,0.9,2.6,2.2C13,2.4,13,2.6,13.1,2.8C13.1,3,13.1,3.2,13.1,3.4z"/>
<path d="M0,10c0-0.2,0.1-0.3,0.1-0.5c0.1-0.5,0.4-1,0.8-1.4c0.9-1,1.9-2,2.9-2.9C4.9,4,6.8,4,7.9,5.2
		C8.3,5.5,8.3,6.1,8,6.4C7.7,6.8,7.1,6.8,6.8,6.5c-0.3-0.3-0.6-0.4-1-0.4c-0.4,0-0.7,0.2-0.9,0.4C4.4,7,3.9,7.4,3.5,7.9
		C3,8.4,2.6,8.8,2.1,9.3c-0.7,0.7-0.4,1.9,0.5,2.2c0.5,0.2,1,0,1.3-0.3c0.5-0.5,1-1,1.5-1.6c0.1-0.1,0.2-0.2,0.4-0.1
		c0.4,0.2,0.9,0.2,1.3,0.2c0.1,0,0.2,0,0.3,0.1c0.1,0.1,0,0.2-0.1,0.3c-0.7,0.8-1.5,1.5-2.2,2.3c-0.5,0.5-1.1,0.8-1.8,0.9
		c0,0-0.1,0-0.1,0c-0.2,0-0.4,0-0.5,0c0,0-0.1,0-0.1,0c-1.3-0.2-2.3-1.1-2.6-2.3c0-0.2-0.1-0.3-0.1-0.5C0,10.3,0,10.1,0,10z"/>
</svg>
