<svg width="32" height="32" viewBox="0 0 32 32" fill="none" xmlns="http://www.w3.org/2000/svg">
<path d="M16 0.5C7.25 0.5 0.5 6.9375 0.5 15.5625C0.5 20.0625 2.3125 24 5.375 26.6875C5.875 27.1875 5.75 27.4375 5.875 30.3125C5.875 31 6.4375 31.5 7.125 31.5C7.25 31.5 7.4375 31.5 7.625 31.4375C10.875 30 10.9375 29.875 11.5 30C21.0625 32.625 31.5 26.5 31.5 15.5625C31.5 6.9375 24.75 0.5 16 0.5ZM25.3125 12.125L20.75 19.3125C20.375 20 19.625 20.4375 18.8125 20.4375C18.25 20.4375 17.8125 20.25 17.375 19.9375L13.75 17.25C13.625 17.125 13.4375 17.0625 13.1875 17.0625C13 17.0625 12.8125 17.125 12.625 17.25L7.75 20.9375C7.0625 21.4375 6.25 20.625 6.6875 19.9375L11.25 12.75C11.625 12.0625 12.375 11.625 13.1875 11.625C13.75 11.625 14.25 11.8125 14.625 12.125L18.25 14.8125C18.375 14.9375 18.5625 15 18.8125 15C19 15 19.1875 14.9375 19.375 14.8125L24.25 11.125C24.9375 10.625 25.75 11.4375 25.3125 12.125Z" fill="white"/>
</svg>
