<svg width="28" height="28" viewBox="0 0 28 28" fill="none" xmlns="http://www.w3.org/2000/svg">
<path d="M23.75 4.125C21.1875 1.5 17.6875 0 13.9375 0C6.3125 0 0.0625 6.25 0.0625 13.875C0.0625 16.375 0.75 18.75 1.9375 20.8125L0 28L7.3125 26.125C9.375 27.1875 11.625 27.8125 13.9375 27.8125C21.625 27.8125 28 21.5625 28 13.9375C28 10.1875 26.375 6.75 23.75 4.125ZM13.9375 25.4375C11.875 25.4375 9.875 24.875 8.0625 23.8125L7.6875 23.5625L3.3125 24.75L4.5 20.5L4.1875 20.0625C3.0625 18.1875 2.4375 16.0625 2.4375 13.875C2.4375 7.5625 7.625 2.375 14 2.375C17.0625 2.375 19.9375 3.5625 22.125 5.75C24.3125 7.9375 25.625 10.8125 25.625 13.9375C25.625 20.25 20.3125 25.4375 13.9375 25.4375ZM20.3125 16.8125C19.9375 16.625 18.25 15.8125 17.9375 15.6875C17.625 15.5625 17.375 15.5 17.125 15.875C16.9375 16.1875 16.25 17 16.0625 17.25C15.8125 17.4375 15.625 17.5 15.3125 17.3125C13.25 16.3125 11.9375 15.5 10.5625 13.1875C10.1875 12.5625 10.9375 12.625 11.5625 11.3125C11.6875 11.0625 11.625 10.875 11.5625 10.6875C11.5 10.5 10.75 8.8125 10.5 8.125C10.1875 7.4375 9.9375 7.5 9.6875 7.5C9.5 7.5 9.25 7.5 9.0625 7.5C8.8125 7.5 8.4375 7.5625 8.125 7.9375C7.8125 8.3125 6.9375 9.125 6.9375 10.8125C6.9375 12.5625 8.125 14.1875 8.3125 14.4375C8.5 14.625 10.75 18.125 14.25 19.625C16.4375 20.625 17.3125 20.6875 18.4375 20.5C19.0625 20.4375 20.4375 19.6875 20.75 18.875C21.0625 18.0625 21.0625 17.375 20.9375 17.25C20.875 17.0625 20.625 17 20.3125 16.8125Z" fill="white"/>
</svg>
